<svg width="410" height="83" viewBox="0 0 410 83" fill="none" xmlns="http://www.w3.org/2000/svg">
<g clip-path="url(#clip0_1_2)">
<g filter="url(#filter0_d_1_2)">
<path d="M7.59999 7.6C7.06666 8 6.66666 18.6667 6.66666 31.0667V53.6L12.4 50.2667L18 46.9333L18.6667 34.4L19.3333 22L26.4 31.6C32.6667 40.1333 34 41.3333 37.7333 41.3333C41.4667 41.2 42.8 40 48.6667 31.7333L55.3333 22.2667L55.7333 34.5333L56.1333 46.6667H62H68V26.6667V6.66667H61.4667H54.8L46.6667 18C42.1333 24.2667 38 29.3333 37.4667 29.3333C36.9333 29.3333 32.8 24.2667 28.2667 18C20.1333 6.8 20 6.66667 14.2667 6.66667C11.0667 6.66667 7.99999 7.06667 7.59999 7.6Z" fill="#8B0000"/>
<path d="M79.6 11.7333L74.6667 16.8V35.0667V53.4667L80.4 50.1333C85.4667 47.0667 86 46.2667 86.4 40.6667L86.8 34.6667H98.8H110.667V40.6667V46.6667H116.667H122.667V31.6V16.5333L117.6 11.6L112.533 6.66666H98.5333H84.5333L79.6 11.7333ZM110.667 21.3333V26.6667H98.6667H86.6667V21.3333V16H98.6667H110.667V21.3333Z" fill="#8B0000"/>
<path d="M129.333 29.8667V53.2L135.333 49.7333C141.2 46.5333 141.333 46.2667 141.333 39.8667V33.3333H152.4C165.067 33.3333 166.667 34.2667 166.667 41.6V46.6667H172.667H178.667V41.0667C178.667 37.2 177.733 34.5333 175.733 32.4C172.8 29.2 173.067 27.3333 177.467 21.2C178.667 19.6 178.133 17.8667 174.533 12.9333L170.133 6.66666H149.733H129.333V29.8667ZM165.333 18C166.667 19.6 166.667 20.4 165.333 22C164.133 23.4667 160.8 24 152.533 24H141.333V20V16H152.533C160.8 16 164.133 16.5333 165.333 18Z" fill="#8B0000"/>
<path d="M190.267 11.7333C185.467 16.6667 185.333 17.0667 185.333 26.8C185.333 36.6667 185.467 36.9333 190.4 41.7333L195.467 46.6667H208.8H222.133L226.667 42L231.2 37.3333H214.267H197.333V26.6667V16H211.067C224.4 16 224.933 15.8667 228.4 12.2667C230.4 10.2667 232 8.13334 232 7.6C232 7.06667 223.733 6.66667 213.6 6.66667H195.2L190.267 11.7333Z" fill="#8B0000"/>
<path d="M240.667 10.8L236 14.9333V26.5333C236 37.8667 236.133 38.2667 240.4 42.4L244.8 46.6667H260.8H276.8L281.733 41.6C286.533 36.6667 286.667 36.2667 286.667 26.5333C286.667 16.6667 286.533 16.4 281.6 11.6L276.533 6.66667H260.933C245.467 6.66667 245.467 6.66667 240.667 10.8ZM274.667 26.6667V37.3333H261.333H248V26.6667V16H261.333H274.667V26.6667Z" fill="#8B0000"/>
<path d="M297.6 12.5333C295.2 15.7333 293.333 18.8 293.333 19.3333C293.333 19.8667 294.933 22.5333 297.067 25.4667L300.667 30.6667H316.133C329.2 30.6667 331.867 31.0667 332.533 32.8C332.933 34 333.067 35.4667 332.533 36.1333C332.133 36.8 325.067 37.3333 316.8 37.3333H301.867L297.333 42L292.8 46.6667H315.467H338.267L342.667 40.5333L346.933 34.4L342.933 28.9333L338.933 23.3333L323.867 22.9333C308.4 22.5333 304 21.2 306.8 17.8667C307.867 16.5333 312.267 16 323.2 16H338.133L342.667 11.3333L347.2 6.66667H324.533H301.733L297.6 12.5333Z" fill="#8B0000"/>
<path d="M356.933 11.7333C352.133 16.6667 352 16.9333 352 27.4667C352 37.7333 352.133 38.2667 356.4 42.4L360.8 46.6667H377.467H394.133L398.4 42.2667C402.533 38.1333 402.667 37.3333 402.667 27.2C402.667 16.6667 402.667 16.5333 397.6 11.6L392.533 6.66667H377.2H361.867L356.933 11.7333ZM390.667 26.6667V37.3333H377.333H364V26.6667V16H377.333H390.667V26.6667Z" fill="#8B0000"/>
<path d="M89.3333 61.3333C85.6 65.0667 86 69.8667 90.1333 73.2C94.6666 76.8 100 76.8 104.533 73.2C108.933 69.7333 109.2 63.7333 105.067 60.8C100.8 57.7333 92.5333 58.1333 89.3333 61.3333Z" fill="#8B0000"/>
<path d="M254.933 60.8C248.4 65.3333 253.867 76 262.667 76C268 76 273.333 71.3333 273.333 66.6667C273.333 61.8667 269.067 58.6667 262.667 58.6667C260 58.6667 256.533 59.6 254.933 60.8Z" fill="#8B0000"/>
<path d="M373.333 61.3333C365.6 69.0667 376.933 79.7333 387.067 74.5333C390.933 72.4 392 70.8 392 66.4C392 59.2 379.067 55.6 373.333 61.3333Z" fill="#8B0000"/>
</g>
</g>
<defs>
<filter id="filter0_d_1_2" x="2.66666" y="6.66666" width="404" height="77.3333" filterUnits="userSpaceOnUse" color-interpolation-filters="sRGB">
<feFlood flood-opacity="0" result="BackgroundImageFix"/>
<feColorMatrix in="SourceAlpha" type="matrix" values="0 0 0 0 0 0 0 0 0 0 0 0 0 0 0 0 0 0 127 0" result="hardAlpha"/>
<feOffset dy="4"/>
<feGaussianBlur stdDeviation="2"/>
<feComposite in2="hardAlpha" operator="out"/>
<feColorMatrix type="matrix" values="0 0 0 0 0 0 0 0 0 0 0 0 0 0 0 0 0 0 0.25 0"/>
<feBlend mode="normal" in2="BackgroundImageFix" result="effect1_dropShadow_1_2"/>
<feBlend mode="normal" in="SourceGraphic" in2="effect1_dropShadow_1_2" result="shape"/>
</filter>
<clipPath id="clip0_1_2">
<rect width="409.333" height="82.6667" fill="white"/>
</clipPath>
</defs>
</svg>
