<?xml version="1.0" standalone="no"?>
<!DOCTYPE svg PUBLIC "-//W3C//DTD SVG 20010904//EN"
 "http://www.w3.org/TR/2001/REC-SVG-20010904/DTD/svg10.dtd">
<svg version="1.0" xmlns="http://www.w3.org/2000/svg"
 width="992.000000pt" height="992.000000pt" viewBox="0 0 992.000000 992.000000"
 preserveAspectRatio="xMidYMid meet">
<metadata>
Created by potrace 1.14, written by Peter Selinger 2001-2017
</metadata>
<g transform="translate(0.000000,992.000000) scale(0.100000,-0.100000)"
fill="#000000" stroke="none">
<path d="M918 8715 c-2 -1 -50 -6 -108 -9 -58 -4 -125 -9 -150 -12 -25 -2 -65
-6 -90 -9 -25 -2 -45 -5 -45 -5 0 -1 -13 -4 -30 -6 -16 -2 -46 -7 -65 -11 -19
-3 -42 -7 -50 -8 -141 -22 -248 -75 -251 -125 0 -8 -2 -22 -4 -30 -16 -73 -29
-183 -40 -335 -2 -27 -4 -50 -5 -50 -1 0 -3 -31 -5 -70 -2 -38 -6 -110 -9
-160 -10 -155 -16 -285 -21 -425 -2 -74 -5 -135 -5 -135 -1 0 -3 -52 -5 -115
-2 -63 -6 -218 -10 -345 -3 -126 -9 -329 -12 -450 -3 -121 -7 -1339 -10 -2707
-4 -2073 -3 -2488 9 -2488 7 0 24 9 38 20 14 11 31 20 38 20 6 0 12 5 12 11 0
5 4 8 9 5 5 -3 14 1 21 9 7 8 19 15 26 15 8 0 14 3 14 8 0 4 17 15 38 25 20
10 66 36 102 57 36 22 74 45 85 50 11 6 40 23 65 38 65 39 311 181 376 217 29
17 59 36 66 43 7 7 16 12 20 12 5 0 45 23 89 50 44 28 82 50 85 50 3 0 72 41
129 78 11 6 39 22 62 34 24 12 43 26 43 30 0 4 4 8 10 8 5 0 54 27 108 60 55
33 104 60 110 60 6 0 12 4 14 8 3 9 189 121 221 134 9 4 18 11 18 15 5 33 19
284 24 428 2 39 4 70 5 70 1 0 3 41 5 90 6 133 14 290 15 290 1 0 3 41 5 90 2
50 6 140 10 200 3 61 8 144 10 185 3 41 7 121 10 178 2 57 7 147 11 200 3 53
7 140 9 192 2 52 5 95 5 95 1 0 3 36 5 80 4 82 11 212 20 370 3 50 7 133 10
185 2 52 7 136 10 185 3 50 7 128 10 175 2 47 7 135 10 195 4 61 8 153 11 205
5 108 9 169 19 360 4 74 8 152 9 173 0 20 4 37 8 37 4 0 8 -4 8 -9 0 -4 13
-24 30 -42 16 -19 32 -42 36 -51 3 -10 10 -18 15 -18 5 0 9 -6 9 -14 0 -8 3
-16 8 -18 6 -3 44 -50 94 -120 76 -104 291 -396 301 -408 7 -9 27 -36 45 -62
18 -26 38 -52 45 -60 7 -7 21 -26 31 -43 11 -16 23 -34 28 -40 7 -9 122 -163
164 -220 62 -85 377 -513 387 -525 6 -9 28 -38 46 -65 19 -28 38 -52 41 -55 3
-3 23 -30 45 -60 22 -30 42 -57 45 -60 3 -3 17 -21 30 -40 12 -19 28 -39 34
-45 6 -5 24 -29 40 -52 16 -24 33 -43 39 -43 6 0 8 -3 4 -6 -5 -5 5 -20 48
-69 11 -13 27 -33 35 -45 22 -32 184 -234 249 -310 175 -204 335 -359 451
-435 88 -58 82 -55 185 -100 32 -14 89 -33 124 -40 11 -3 31 -7 44 -10 51 -12
119 -17 237 -18 170 -2 296 14 405 50 28 10 53 16 58 15 4 -1 7 2 7 8 0 5 7
10 15 10 19 0 143 67 169 92 11 10 26 18 33 18 7 0 13 4 13 8 0 5 19 23 43 40
70 51 307 292 307 312 0 5 4 10 8 12 4 1 39 41 77 88 39 47 74 90 80 96 5 6
17 22 25 34 8 12 20 28 26 34 5 6 50 65 100 131 49 66 91 122 94 125 3 3 16
21 30 40 13 19 73 103 133 185 59 83 122 171 140 198 17 26 35 47 39 47 5 0 8
4 8 10 0 5 31 54 70 107 38 54 74 105 80 113 64 93 224 319 235 333 8 9 15 22
15 27 0 6 5 10 10 10 6 0 10 7 10 15 0 8 4 15 8 15 4 0 16 15 27 33 10 17 21
34 25 37 14 12 220 312 220 320 0 6 4 10 8 10 7 0 69 86 107 148 6 9 18 24 27
35 9 10 29 39 44 63 15 24 32 44 36 44 4 0 8 4 8 10 0 8 51 85 83 125 4 6 14
19 22 30 13 18 14 12 16 -65 1 -113 8 -315 23 -770 12 -324 18 -500 22 -635 6
-200 12 -393 19 -595 6 -199 13 -405 20 -630 3 -85 5 -155 5 -155 1 0 3 -65 5
-145 17 -521 30 -871 34 -893 0 -4 9 -3 19 2 10 5 24 6 31 2 7 -5 28 -5 47 -1
20 5 34 4 34 -2 0 -5 6 -5 17 1 10 5 26 5 40 0 13 -5 23 -5 23 -1 0 5 15 7 33
5 17 -2 43 -5 57 -6 14 -1 35 1 46 4 12 4 26 3 32 -3 6 -6 12 -6 16 1 5 8 13
8 26 1 13 -7 21 -7 25 0 4 6 13 7 23 1 10 -5 24 -6 33 -1 8 5 21 5 28 1 7 -5
28 -5 47 -1 20 5 34 4 34 -2 0 -5 6 -5 17 1 10 5 26 5 40 0 13 -5 23 -5 23 -1
0 5 15 7 33 5 17 -2 43 -5 57 -6 14 -1 35 1 46 4 12 4 26 3 32 -3 6 -6 12 -6
16 1 5 8 13 8 26 1 13 -7 21 -7 25 0 4 6 13 7 23 1 10 -5 24 -6 33 -1 8 5 21
5 28 1 7 -5 28 -5 47 -1 20 5 34 4 34 -2 0 -5 6 -5 17 1 10 5 26 5 40 0 13 -5
23 -5 23 -1 0 5 15 7 33 5 17 -2 43 -5 57 -6 14 -1 35 1 46 4 12 4 26 3 32 -3
6 -6 12 -6 16 1 5 8 13 8 26 1 13 -7 21 -7 25 0 4 6 13 7 23 1 10 -5 24 -6 33
-1 8 5 21 5 28 1 7 -5 28 -5 47 -1 20 5 34 4 34 -2 0 -5 6 -5 17 1 10 5 26 5
40 0 13 -5 23 -5 23 -1 0 5 15 7 33 5 17 -2 43 -5 57 -6 14 -1 35 1 47 5 12 4
24 4 27 0 6 -9 76 -3 77 7 0 3 2 1443 2 3199 l2 3192 -1057 0 -1057 0 -68 -95
c-37 -53 -90 -126 -116 -163 -27 -37 -55 -76 -63 -87 -59 -82 -142 -197 -154
-215 -8 -12 -26 -37 -40 -55 -14 -18 -31 -41 -38 -51 -7 -11 -42 -59 -77 -109
-36 -49 -84 -117 -106 -149 -23 -33 -46 -65 -51 -70 -5 -6 -49 -67 -98 -136
-49 -69 -98 -136 -109 -150 -12 -14 -21 -30 -21 -37 0 -6 -4 -13 -9 -15 -7 -3
-121 -155 -146 -197 -5 -9 -12 -18 -16 -21 -3 -3 -21 -27 -40 -55 -18 -27 -38
-54 -42 -60 -4 -5 -29 -39 -54 -75 -125 -174 -404 -553 -413 -560 -3 -3 -22
-27 -40 -55 -19 -27 -44 -61 -57 -75 -13 -14 -23 -28 -23 -32 0 -3 -6 -13 -13
-20 -7 -7 -49 -60 -92 -118 -44 -58 -83 -107 -86 -110 -3 -3 -28 -34 -55 -70
-86 -113 -287 -364 -321 -400 -18 -19 -33 -38 -33 -41 0 -3 -10 -17 -22 -31
-13 -13 -50 -56 -83 -94 -136 -156 -243 -264 -273 -275 -9 -3 -26 -1 -38 6
-32 16 -190 180 -289 300 -28 33 -58 67 -67 76 -10 9 -18 21 -18 28 0 6 -3 11
-8 11 -4 0 -41 43 -82 95 -41 52 -78 95 -82 95 -5 0 -8 4 -8 10 0 9 -14 28
-45 64 -21 23 -61 73 -80 100 -11 16 -25 33 -30 40 -6 6 -24 29 -40 51 -17 22
-37 49 -47 60 -63 78 -168 217 -168 224 0 5 -4 11 -9 13 -7 3 -142 180 -270
356 -25 35 -51 69 -56 75 -6 7 -22 28 -35 47 -14 19 -30 42 -37 50 -7 8 -35
47 -62 85 -27 39 -57 79 -65 90 -9 11 -102 139 -208 285 -106 146 -196 270
-200 275 -5 6 -34 44 -64 85 -31 41 -65 86 -75 100 -11 14 -52 69 -93 122 -40
53 -84 110 -97 126 -13 16 -37 46 -54 67 -16 21 -37 45 -45 53 -8 8 -22 25
-30 38 -9 13 -49 60 -90 105 -278 307 -463 425 -728 465 -20 3 -48 8 -62 11
-25 6 -736 14 -742 8z"/>
</g>
</svg>
