<svg id="Layer_2" data-name="Layer 2" xmlns="http://www.w3.org/2000/svg" viewBox="0 0 192 192"><defs><style>.cls-1,.cls-2{fill:none;stroke-linecap:round;stroke-linejoin:round;stroke-width:7.00px;}.cls-1{stroke:#080808;}.cls-2{stroke:#8B0000;}</style></defs><path class="cls-1" d="M156,87v83a10,10,0,0,1-10,10H46a10,10,0,0,1-10-10V22A10,10,0,0,1,46,12H146a10,10,0,0,1,10,10V64"></path><polyline class="cls-2" points="56 56 64 64 76 52"></polyline><polyline class="cls-2" points="56 96 64 104 76 92"></polyline><polyline class="cls-2" points="56 136 64 144 76 132"></polyline><line class="cls-1" x1="104" y1="60" x2="132" y2="60"></line><line class="cls-1" x1="104" y1="100" x2="132" y2="100"></line><line class="cls-1" x1="104" y1="140" x2="132" y2="140"></line></svg>