<svg id="Layer_2" data-name="Layer 2" xmlns="http://www.w3.org/2000/svg" viewBox="0 0 192 192"><defs><style>.cls-1,.cls-2{fill:none;stroke-linecap:round;stroke-linejoin:round;stroke-width:7.00px;}.cls-1{stroke:#080808;}.cls-2{stroke:#8B0000;}</style></defs><path class="cls-1" d="M111.79,118.74l9.45,8.56a8.76,8.76,0,0,1,.62,12.36h0a8.75,8.75,0,0,1-12.36.62L100,131.72"></path><path class="cls-1" d="M123.53,105.77l9.46,8.55a8.75,8.75,0,0,1,.61,12.36h0a8.75,8.75,0,0,1-12.36.62l-9.45-8.56"></path><path class="cls-1" d="M87.87,59.15a109.67,109.67,0,0,0-40.93-7.92"></path><path class="cls-1" d="M123.53,105.77l9.46,8.55a8.75,8.75,0,0,0,12.36-.61h0a8.75,8.75,0,0,0-.62-12.36l-9.45-8.56L121,79.81l-1.23-1.09"></path><path class="cls-1" d="M100,131.72l9.46,8.56a8.76,8.76,0,0,1,.61,12.36h0a8.76,8.76,0,0,1-12.36.62L88.3,144.7,46,106.39,32.11,93.76"></path><path class="cls-2" d="M33.59,36.41l8.24,2.88a8.78,8.78,0,0,1,5.39,11.19L27.28,107.55A8.79,8.79,0,0,1,16.09,113l-6.87-2.4"></path><path class="cls-1" d="M89.37,76.55l-9.46,8.56a8.75,8.75,0,0,1-12.36-.62h0a8.76,8.76,0,0,1,.62-12.36h0A74.67,74.67,0,0,1,96.92,55.79a110.64,110.64,0,0,1,31.44-4.56h0L145,51.3"></path><line class="cls-1" x1="147.3" y1="105.26" x2="159.91" y2="93.76"></line><path class="cls-2" d="M155.67,81.66l9.05,25.89a8.79,8.79,0,0,0,11.19,5.4l6.9-2.41"></path><path class="cls-2" d="M158.41,36.41l-8.24,2.88a8.78,8.78,0,0,0-5.39,11.19l3.35,9.6"></path></svg>