<svg id="Layer_10" data-name="Layer 10" xmlns="http://www.w3.org/2000/svg" viewBox="0 0 192 192"><defs><style>.cls-1,.cls-2{fill:none;stroke-linecap:round;stroke-linejoin:round;stroke-width:7.00px;}.cls-1{stroke:#080808;}.cls-2{stroke:#8B0000;}</style></defs><rect class="cls-1" x="22.36" y="90.19" width="144.84" height="78.44" rx="10"></rect><line class="cls-2" x1="146.35" y1="75.69" x2="102.35" y2="56.83"></line><path class="cls-1" d="M87.68,53.31a7.52,7.52,0,1,0,7.52-7.52V37.23"></path><polygon class="cls-2" points="101.78 33.49 88.8 33.49 85.8 8 104.78 8 101.78 33.49"></polygon><line class="cls-2" x1="43.2" y1="75.69" x2="91.22" y2="55.52"></line><line class="cls-1" x1="41.76" y1="102.57" x2="41.76" y2="156.24"></line><line class="cls-1" x1="56.91" y1="102.57" x2="56.91" y2="156.24"></line><line class="cls-1" x1="72.06" y1="102.57" x2="72.06" y2="156.24"></line><line class="cls-1" x1="87.2" y1="102.57" x2="87.2" y2="156.24"></line><line class="cls-1" x1="102.35" y1="102.57" x2="102.35" y2="156.24"></line><line class="cls-1" x1="117.5" y1="102.57" x2="117.5" y2="156.24"></line><line class="cls-1" x1="132.65" y1="102.57" x2="132.65" y2="156.24"></line><line class="cls-1" x1="147.8" y1="102.57" x2="147.8" y2="156.24"></line></svg>