<?xml version="1.0" encoding="UTF-8"?>
<svg xmlns="http://www.w3.org/2000/svg" xmlns:xlink="http://www.w3.org/1999/xlink" width="606.37pt" height="330.6pt" viewBox="0 0 606.37 330.6" version="1.1">
<defs>
<clipPath id="clip1">
  <path d="M 331 254 L 380 254 L 380 330.601563 L 331 330.601563 Z M 331 254 "/>
</clipPath>
<clipPath id="clip2">
  <path d="M 562 255 L 606.371094 255 L 606.371094 330 L 562 330 Z M 562 255 "/>
</clipPath>
</defs>
<g id="surface1">
<path style=" stroke:none;fill-rule:evenodd;fill:rgb(24.313354%,47.450256%,73.332214%);fill-opacity:1;" d="M 254.394531 196.46875 C 194.820313 182.882813 151.785156 145.152344 151.785156 100.9375 C 151.785156 95.402344 152.472656 89.980469 153.761719 84.695313 C 182.789063 76.8125 258.96875 65.09375 272.90625 74.328125 C 282.058594 79.714844 264.230469 152.234375 254.394531 196.46875 "/>
<path style=" stroke:none;fill-rule:evenodd;fill:rgb(24.313354%,47.450256%,73.332214%);fill-opacity:1;" d="M 452.601563 84.679688 C 453.910156 89.976563 454.585938 95.402344 454.585938 100.9375 C 454.585938 145.242188 411.371094 183.039063 351.613281 196.558594 C 341.765625 152.308594 323.960938 79.714844 333.101563 74.328125 C 347.027344 65.105469 423.527344 76.796875 452.601563 84.679688 "/>
<path style=" stroke:none;fill-rule:evenodd;fill:rgb(24.313354%,47.450256%,73.332214%);fill-opacity:1;" d="M 303.1875 0.00390625 C 368.507813 0.00390625 424.371094 27.820313 445.535156 66.585938 C 421.195313 62.804688 308.4375 35.722656 309.695313 58.070313 L 309.695313 201.761719 C 307.546875 201.835938 305.371094 201.867188 303.1875 201.867188 C 300.882813 201.867188 298.597656 201.828125 296.308594 201.753906 L 296.308594 58.070313 C 297.5625 35.746094 185.355469 62.730469 160.851563 66.566406 C 182.007813 27.8125 237.882813 0.00390625 303.1875 0.00390625 "/>
<g clip-path="url(#clip1)" clip-rule="nonzero">
<path style=" stroke:none;fill-rule:nonzero;fill:rgb(23.899841%,47.499084%,73.298645%);fill-opacity:1;" d="M 341.777344 258.816406 C 346.480469 255.800781 352.113281 254.597656 357.640625 254.4375 C 364.023438 254.359375 370.570313 255.234375 376.355469 258.078125 C 375.28125 261.730469 374.195313 265.371094 373.109375 269.019531 C 368.453125 266.632813 363.207031 265.464844 357.984375 265.488281 C 354.878906 265.570313 351.613281 266.230469 349.140625 268.222656 C 346.855469 270.042969 345.632813 273.160156 346.277344 276.039063 C 346.664063 278.507813 348.449219 280.480469 350.46875 281.816406 C 355.175781 284.960938 360.78125 286.261719 365.773438 288.839844 C 369.574219 290.738281 373.207031 293.222656 375.753906 296.679688 C 378.914063 300.9375 379.824219 306.542969 379.054688 311.710938 C 378.402344 316.453125 375.988281 320.9375 372.335938 324.042969 C 368.886719 327.039063 364.53125 328.839844 360.082031 329.742188 C 354.902344 330.789063 349.539063 330.859375 344.320313 330.054688 C 339.796875 329.378906 335.3125 328.148438 331.257813 325.984375 C 332.117188 322.183594 333.246094 318.441406 334.226563 314.667969 C 339.671875 317.738281 345.921875 319.335938 352.164063 319.410156 C 355.859375 319.347656 359.855469 318.660156 362.671875 316.070313 C 364.933594 314.066406 365.855469 310.871094 365.433594 307.929688 C 365.160156 305.375 363.570313 303.152344 361.558594 301.648438 C 357.390625 298.457031 352.171875 297.289063 347.480469 295.132813 C 342.574219 292.875 337.769531 289.765625 334.921875 285.046875 C 332.46875 281.078125 331.953125 276.167969 332.789063 271.640625 C 333.785156 266.335938 337.230469 261.65625 341.777344 258.816406 "/>
</g>
<path style=" stroke:none;fill-rule:nonzero;fill:rgb(23.899841%,47.499084%,73.298645%);fill-opacity:1;" d="M 0 255.25 C 23.914063 255.230469 47.824219 255.25 71.738281 255.238281 C 71.730469 262.519531 71.734375 269.796875 71.738281 277.078125 C 64.875 277.09375 58.011719 277.078125 51.152344 277.085938 C 51.152344 294.542969 51.148438 312 51.152344 329.460938 C 41.195313 329.449219 31.230469 329.464844 21.269531 329.449219 C 21.292969 311.996094 21.269531 294.546875 21.285156 277.09375 C 14.195313 277.070313 7.101563 277.09375 0.0078125 277.078125 C 0.00390625 269.804688 0.0195313 262.523438 0 255.25 "/>
<path style=" stroke:none;fill-rule:nonzero;fill:rgb(23.899841%,47.499084%,73.298645%);fill-opacity:1;" d="M 92.4375 255.222656 C 102.824219 255.269531 113.214844 255.234375 123.601563 255.234375 C 133.210938 279.984375 142.835938 304.730469 152.460938 329.472656 C 142.761719 329.441406 133.058594 329.457031 123.359375 329.464844 C 118.261719 314.84375 113.21875 300.199219 108.15625 285.5625 C 107.882813 285.902344 107.71875 286.304688 107.585938 286.71875 C 102.738281 300.964844 97.847656 315.195313 93.007813 329.445313 C 83.421875 329.472656 73.839844 329.449219 64.253906 329.457031 C 73.601563 304.695313 83.003906 279.945313 92.4375 255.222656 "/>
<path style=" stroke:none;fill-rule:nonzero;fill:rgb(23.899841%,47.499084%,73.298645%);fill-opacity:1;" d="M 145.585938 255.222656 C 169.496094 255.269531 193.40625 255.226563 217.316406 255.242188 C 217.320313 262.523438 217.320313 269.804688 217.320313 277.082031 C 210.457031 277.085938 203.59375 277.078125 196.734375 277.082031 C 196.730469 294.542969 196.738281 312 196.730469 329.457031 C 186.769531 329.46875 176.816406 329.433594 166.855469 329.476563 C 166.773438 312.015625 166.84375 294.546875 166.820313 277.085938 C 159.730469 277.078125 152.640625 277.085938 145.550781 277.078125 C 145.574219 269.796875 145.496094 262.507813 145.585938 255.222656 "/>
<path style=" stroke:none;fill-rule:nonzero;fill:rgb(23.899841%,47.499084%,73.298645%);fill-opacity:1;" d="M 237.945313 255.230469 C 248.328125 255.253906 258.714844 255.242188 269.101563 255.238281 C 278.742188 279.976563 288.355469 304.722656 297.964844 329.472656 C 288.261719 329.4375 278.558594 329.46875 268.855469 329.457031 C 263.769531 314.769531 258.710938 300.078125 253.597656 285.398438 C 248.496094 300.0625 243.558594 314.78125 238.496094 329.460938 C 228.914063 329.464844 219.332031 329.441406 209.75 329.472656 C 219.132813 304.71875 228.507813 279.964844 237.945313 255.230469 "/>
<path style=" stroke:none;fill-rule:nonzero;fill:rgb(23.899841%,47.499084%,73.298645%);fill-opacity:1;" d="M 380.632813 255.582031 C 399.285156 255.585938 417.941406 255.597656 436.597656 255.574219 C 436.636719 259.359375 436.601563 263.144531 436.613281 266.929688 C 429.507813 266.921875 422.40625 266.949219 415.300781 266.914063 C 415.238281 287.761719 415.300781 308.613281 415.273438 329.460938 C 410.761719 329.445313 406.253906 329.480469 401.746094 329.445313 C 401.773438 308.605469 401.757813 287.769531 401.753906 266.933594 C 394.710938 266.921875 387.667969 266.929688 380.628906 266.929688 C 380.625 263.144531 380.613281 259.363281 380.632813 255.582031 "/>
<path style=" stroke:none;fill-rule:nonzero;fill:rgb(23.899841%,47.499084%,73.298645%);fill-opacity:1;" d="M 445.105469 255.5625 C 459.457031 255.628906 473.8125 255.539063 488.167969 255.605469 C 488.128906 259.292969 488.148438 262.980469 488.15625 266.667969 C 478.332031 266.667969 468.503906 266.695313 458.683594 266.652344 C 458.589844 272.984375 458.679688 279.3125 458.636719 285.644531 C 467.9375 285.703125 477.238281 285.609375 486.542969 285.691406 C 486.453125 289.371094 486.613281 293.058594 486.460938 296.742188 C 477.191406 296.65625 467.914063 296.726563 458.644531 296.707031 C 458.632813 303.882813 458.660156 311.058594 458.632813 318.230469 C 469.015625 318.28125 479.40625 318.234375 489.789063 318.257813 C 489.816406 321.96875 489.742188 325.683594 489.828125 329.398438 C 474.914063 329.542969 459.992188 329.40625 445.074219 329.46875 C 445.035156 309.832031 445.070313 290.199219 445.058594 270.5625 C 445.085938 265.5625 444.996094 260.558594 445.105469 255.5625 "/>
<path style=" stroke:none;fill-rule:nonzero;fill:rgb(23.899841%,47.499084%,73.298645%);fill-opacity:1;" d="M 503.691406 255.644531 C 518.0625 255.515625 532.449219 255.609375 546.828125 255.597656 C 546.804688 259.285156 546.8125 262.976563 546.824219 266.667969 C 537 266.667969 527.171875 266.691406 517.347656 266.65625 C 517.257813 272.984375 517.347656 279.3125 517.300781 285.640625 C 526.597656 285.695313 535.894531 285.632813 545.195313 285.667969 C 545.195313 289.335938 545.160156 292.996094 545.210938 296.660156 C 535.914063 296.765625 526.613281 296.671875 517.3125 296.707031 C 517.304688 303.886719 517.320313 311.0625 517.304688 318.238281 C 527.6875 318.273438 538.070313 318.238281 548.457031 318.257813 C 548.476563 321.976563 548.421875 325.695313 548.484375 329.414063 C 533.582031 329.527344 518.671875 329.398438 503.769531 329.480469 C 503.648438 304.867188 503.800781 280.253906 503.691406 255.644531 "/>
<g clip-path="url(#clip2)" clip-rule="nonzero">
<path style=" stroke:none;fill-rule:nonzero;fill:rgb(23.899841%,47.499084%,73.298645%);fill-opacity:1;" d="M 562.421875 255.566406 C 566.945313 255.613281 571.464844 255.5625 575.988281 255.59375 C 575.964844 276.429688 575.980469 297.269531 575.984375 318.109375 C 586.113281 318.117188 596.238281 318.109375 606.371094 318.109375 C 606.371094 321.894531 606.375 325.675781 606.367188 329.460938 C 591.71875 329.46875 577.078125 329.433594 562.429688 329.480469 C 562.363281 304.84375 562.378906 280.207031 562.421875 255.566406 "/>
</g>
</g>
</svg>
